HIERARCHY
ROOT Hips
{
    OFFSET 0.000 93.594 0.000
    CHANNELS 6 Xposition Yposition Zposition Yrotation Xrotation Zrotation
    JOINT RightHip
    {
        OFFSET -9.500 -1.594 0.000
        CHANNELS 3 Yrotation Xrotation Zrotation
        JOINT RightKnee
        {
            OFFSET 0.000 -42.000 0.000
            CHANNELS 3 Yrotation Xrotation Zrotation
            JOINT RightAnkle
            {
                OFFSET 0.000 -42.000 0.000
                CHANNELS 3 Yrotation Xrotation Zrotation
                End Site
                {
                    OFFSET 0.000 -8.000 17.500
                }
            }
        }
    }
    JOINT LeftHip
    {
        OFFSET 9.500 -1.594 0.000
        CHANNELS 3 Yrotation Xrotation Zrotation
        JOINT LeftKnee
        {
            OFFSET 0.000 -42.000 0.000
            CHANNELS 3 Yrotation Xrotation Zrotation
            JOINT LeftAnkle
            {
                OFFSET 0.000 -42.000 0.000
                CHANNELS 3 Yrotation Xrotation Zrotation
                End Site
                {
                    OFFSET 0.000 -8.000 17.500
                }
            }
        }
    }
    JOINT Chest
    {
        OFFSET 0.000 14.348 0.000
        CHANNELS 3 Yrotation Xrotation Zrotation
        JOINT Chest2
        {
            OFFSET 0.000 9.746 0.000
            CHANNELS 3 Yrotation Xrotation Zrotation
            JOINT Chest3
            {
                OFFSET 0.000 10.149 0.000
                CHANNELS 3 Yrotation Xrotation Zrotation
                JOINT Chest4
                {
                    OFFSET 0.000 9.746 0.000
                    CHANNELS 3 Yrotation Xrotation Zrotation
                    JOINT Neck
                    {
                        OFFSET 0.000 10.417 0.000
                        CHANNELS 3 Yrotation Xrotation Zrotation
                        JOINT Head
                        {
                            OFFSET 0.000 9.000 0.000
                            CHANNELS 3 Yrotation Xrotation Zrotation
                            End Site
                            {
                                OFFSET 0.000 16.000 0.000
                            }
                        }
                    }
                    JOINT RightCollar
                    {
                        OFFSET -3.200 6.945 0.000
                        CHANNELS 3 Yrotation Xrotation Zrotation
                        JOINT RightShoulder
                        {
                            OFFSET -12.800 0.000 0.000
                            CHANNELS 3 Yrotation Xrotation Zrotation
                            JOINT RightElbow
                            {
OFFSET -0 -27 0.000
						CHANNELS 3 Xrotation Yrotation Zrotation
                                JOINT RightWrist
                                {
OFFSET -0 -26 0.000
						CHANNELS 3 Xrotation Yrotation Zrotation
                                    JOINT RightFinger0
                                    {
OFFSET -0.196 -2.56 3.210
						CHANNELS 3 Xrotation Yrotation Zrotation
                                        JOINT RightFinger01
                                        {
OFFSET -0 -3.788 0.000
						CHANNELS 3 Xrotation Yrotation Zrotation
                                            JOINT RightFinger0Nub
                                            {
OFFSET -0 -2.631 0.000
						CHANNELS 3 Xrotation Yrotation Zrotation
                                                End Site
                                                {
OFFSET 0 -2.256 0
                                                }
                                            }
                                        }
                                    }
                                    JOINT RightFinger1
                                    {
OFFSET -0.523 -3.316 2.035
						CHANNELS 3 Xrotation Yrotation Zrotation
                                        JOINT RightFinger11
                                        {
OFFSET 0.094 -5.366 1.028
						CHANNELS 3 Xrotation Yrotation Zrotation
                                            JOINT RightFinger12
                                            {
OFFSET -0 -3.723 0.000
						CHANNELS 3 Xrotation Yrotation Zrotation
                                                JOINT RightFinger1Nub
                                                {
OFFSET -0 -2.111 0.000
						CHANNELS 3 Xrotation Yrotation Zrotation
                                                    End Site
                                                    {
OFFSET 0 -1.857 0
                                                    }
                                                }
                                            }
                                        }
                                    }
                                    JOINT RightFinger2
                                    {
OFFSET -0.532 -3.479 0.778
						CHANNELS 3 Xrotation Yrotation Zrotation
                                        JOINT RightFinger21
                                        {
OFFSET 0.086 -5.322 0.323
						CHANNELS 3 Xrotation Yrotation Zrotation
                                            JOINT RightFinger22
                                            {
OFFSET -0 -4.062 0.000
						CHANNELS 3 Xrotation Yrotation Zrotation
                                                JOINT RightFinger2Nub
                                                {
OFFSET -0 -2.547 0.000
						CHANNELS 3 Xrotation Yrotation Zrotation
                                                    End Site
                                                    {
OFFSET 0 -2.031 0
                                                    }
                                                }
                                            }
                                        }
                                    }
                                    JOINT RightFinger3
                                    {
OFFSET -0.553 -3.461 -0.133
						CHANNELS 3 Xrotation Yrotation Zrotation
                                        JOINT RightFinger31
                                        {
OFFSET 0.023 -4.767 -0.493
						CHANNELS 3 Xrotation Yrotation Zrotation
                                            JOINT RightFinger32
                                            {
OFFSET -0 -3.541 0.000
						CHANNELS 3 Xrotation Yrotation Zrotation
                                                JOINT RightFinger3Nub
                                                {
OFFSET -0 -2.456 0.000
						CHANNELS 3 Xrotation Yrotation Zrotation
                                                    End Site
                                                    {
OFFSET 0 -1.91 0
                                                    }
                                                }
                                            }
                                        }
                                    }
                                    JOINT RightFinger4
                                    {
OFFSET -0.483 -3.251 -1.236
						CHANNELS 3 Xrotation Yrotation Zrotation
                                        JOINT RightFinger41
                                        {
OFFSET 0.023 -4.259 -1.122
						CHANNELS 3 Xrotation Yrotation Zrotation
                                            JOINT RightFinger42
                                            {
OFFSET -0 -2.835 0.000
						CHANNELS 3 Xrotation Yrotation Zrotation
                                                JOINT RightFinger4Nub
                                                {
OFFSET -0 -1.792 0.000
						CHANNELS 3 Xrotation Yrotation Zrotation
                                                    End Site
                                                    {
OFFSET 0 -1.692 0
                                                    }
                                                }
                                            }
                                        }
                                    }
                                }
                            }
                        }
                    }
                    JOINT LeftCollar
                    {
                        OFFSET 3.200 6.945 0.000
                        CHANNELS 3 Yrotation Xrotation Zrotation
                        JOINT LeftShoulder
                        {
                            OFFSET 12.800 0.000 0.000
                            CHANNELS 3 Yrotation Xrotation Zrotation
                            JOINT LeftElbow
                            {
OFFSET -0 -27 0.000
						CHANNELS 3 Xrotation Yrotation Zrotation
                                JOINT LeftWrist
                                {
OFFSET -0 -26 0.000
						CHANNELS 3 Xrotation Yrotation Zrotation
                                    JOINT LeftFinger0
                                    {
OFFSET -0.196 -2.56 3.210
						CHANNELS 3 Xrotation Yrotation Zrotation
                                        JOINT LeftFinger01
                                        {
OFFSET -0 -3.788 0.000
						CHANNELS 3 Xrotation Yrotation Zrotation
                                            JOINT LeftFinger0Nub
                                            {
OFFSET -0 -2.631 0.000
						CHANNELS 3 Xrotation Yrotation Zrotation
                                                End Site
                                                {
OFFSET 0 -2.256 0
                                                }
                                            }
                                        }
                                    }
                                    JOINT LeftFinger1
                                    {
OFFSET -0.523 -3.316 2.035
						CHANNELS 3 Xrotation Yrotation Zrotation
                                        JOINT LeftFinger11
                                        {
OFFSET 0.094 -5.366 1.028
						CHANNELS 3 Xrotation Yrotation Zrotation
                                            JOINT LeftFinger12
                                            {
OFFSET -0 -3.723 0.000
						CHANNELS 3 Xrotation Yrotation Zrotation
                                                JOINT LeftFinger1Nub
                                                {
OFFSET -0 -2.111 0.000
						CHANNELS 3 Xrotation Yrotation Zrotation
                                                    End Site
                                                    {
OFFSET 0 -1.857 0
                                                    }
                                                }
                                            }
                                        }
                                    }
                                    JOINT LeftFinger2
                                    {
OFFSET -0.532 -3.479 0.778
						CHANNELS 3 Xrotation Yrotation Zrotation
                                        JOINT LeftFinger21
                                        {
OFFSET 0.086 -5.322 0.323
						CHANNELS 3 Xrotation Yrotation Zrotation
                                            JOINT LeftFinger22
                                            {
OFFSET -0 -4.062 0.000
						CHANNELS 3 Xrotation Yrotation Zrotation
                                                JOINT LeftFinger2Nub
                                                {
OFFSET -0 -2.547 0.000
						CHANNELS 3 Xrotation Yrotation Zrotation
                                                    End Site
                                                    {
OFFSET 0 -2.031 0
                                                    }
                                                }
                                            }
                                        }
                                    }
                                    JOINT LeftFinger3
                                    {
OFFSET -0.553 -3.461 -0.133
						CHANNELS 3 Xrotation Yrotation Zrotation
                                        JOINT LeftFinger31
                                        {
OFFSET 0.023 -4.767 -0.493
						CHANNELS 3 Xrotation Yrotation Zrotation
                                            JOINT LeftFinger32
                                            {
OFFSET -0 -3.541 0.000
						CHANNELS 3 Xrotation Yrotation Zrotation
                                                JOINT LeftFinger3Nub
                                                {
OFFSET -0 -2.456 0.000
						CHANNELS 3 Xrotation Yrotation Zrotation
                                                    End Site
                                                    {
OFFSET 0 -1.91 0
                                                    }
                                                }
                                            }
                                        }
                                    }
                                    JOINT LeftFinger4
                                    {
OFFSET -0.483 -3.251 -1.236
						CHANNELS 3 Xrotation Yrotation Zrotation
                                        JOINT LeftFinger41
                                        {
OFFSET 0.023 -4.259 -1.122
						CHANNELS 3 Xrotation Yrotation Zrotation
                                            JOINT LeftFinger42
                                            {
OFFSET -0 -2.835 0.000
						CHANNELS 3 Xrotation Yrotation Zrotation
                                                JOINT LeftFinger4Nub
                                                {
OFFSET -0 -1.792 0.000
						CHANNELS 3 Xrotation Yrotation Zrotation
                                                    End Site
                                                    {
OFFSET 0 -1.692 0
                                                    }
                                                }
                                            }
                                        }
                                    }
                                }
                            }
                        }
                    }
                }
            }
        }
    }
}
MOTION

Frames: 11
Frame Time: 0.017
-306.91 92.41 46.75 93.08 3.80 1.60 1.43 -12.92 -5.76 0.00 28.28 0.00 1.93 -18.36 0.83 16.47 -16.52 -1.94 -0.00 28.15 0.00 2.30 -13.78 -2.44 -2.44 -5.73 2.36 -0.62 -1.39 0.56 -1.07 -2.26 0.95 -0.04 3.40 -0.38 -1.18 54.25 -1.07 -17.20 32.30 -9.44 23.63 -1.61 -2.42 11.34 -44.48 -28.77 -46.33 19.66 27.96 -10.05 13.43 -0.74 -49.41 -0 15.78 11.71 -0 -14.04 -13.22 -0 0.00 0 -0 0.00 -15 -0 6.78 0 -0 4.20 0 -0 2.10 0 -0 0.00 0 -0 4.96 0 -0 4.96 0 -0 4.96 0 -0 0.00 15 -0 6.07 0 -0 6.07 0 -0 6.07 0 -0 0.00 25 -0 9.76 0 -0 9.76 0 -0 9.76 -9.94 -2.85 2.07 23.82 -27.73 35.62 -24.06 -18.16 -11.66 -13.43 16.88 -8.42 -10.10 0 -34.29 -10.15 0 9.92 1.89 0 0.00 0.00 0 0.00 -15.00 0 3.51 0.00 0 -2.88 0.00 0 -1.44 0.00 0 0.00 0.00 0 -1.05 0.00 0 -1.05 0.00 0 -1.05 0.00 0 0.00 15.00 0 -14.47 0.00 0 -14.47 0.00 0 -14.47 0.00 0 0.00 25.00 0 -4.47 0.00 0 -4.47 0.00 0 -4.47 
-306.40 92.25 46.61 93.04 3.60 1.40 1.34 -12.60 -5.64 0.00 28.75 0.00 1.99 -18.89 0.92 17.14 -16.45 -1.66 -0.00 29.08 0.00 1.57 -14.64 -2.33 -2.42 -5.73 2.54 -0.62 -1.39 0.61 -1.06 -2.26 1.03 -0.03 3.40 -0.38 -1.18 54.41 -1.06 -17.37 32.33 -9.52 23.65 -1.63 -2.54 11.17 -44.25 -28.59 -47.02 20.49 27.58 -10.22 13.32 -0.29 -49.26 -0 15.84 12.01 -0 -13.99 -14.15 -0 0.00 0 -0 0.00 -15 -0 6.69 0 -0 4.11 0 -0 2.05 0 -0 0.00 0 -0 4.97 0 -0 4.97 0 -0 4.97 0 -0 0.00 15 -0 5.97 0 -0 5.97 0 -0 5.97 0 -0 0.00 25 -0 9.63 0 -0 9.63 0 -0 9.63 -10.45 -2.50 2.13 24.44 -27.80 35.34 -24.72 -17.98 -10.77 -12.46 17.08 -9.54 -10.37 0 -33.92 -10.69 0 10.30 2.27 0 0.00 0.00 0 0.00 -15.00 0 4.85 0.00 0 -2.97 0.00 0 -1.49 0.00 0 0.00 0.00 0 -0.46 0.00 0 -0.46 0.00 0 -0.46 0.00 0 0.00 15.00 0 -14.47 0.00 0 -14.47 0.00 0 -14.47 0.00 0 0.00 25.00 0 -3.37 0.00 0 -3.37 0.00 0 -3.37 
-305.68 92.08 46.64 93.04 3.60 1.40 1.36 -12.50 -5.72 0.00 29.02 -0.00 1.97 -19.27 0.99 16.97 -16.52 -1.45 -0.00 30.16 0.00 1.70 -15.65 -2.59 -2.42 -5.73 2.54 -0.62 -1.39 0.61 -1.06 -2.26 1.03 -0.03 3.40 -0.38 -1.18 54.41 -1.06 -17.37 32.33 -9.52 23.65 -1.63 -2.54 11.17 -44.25 -28.59 -47.02 20.49 27.58 -10.22 13.32 -0.29 -49.26 -0 15.84 12.01 -0 -13.99 -14.15 -0 0.00 0 -0 0.00 -15 -0 6.69 0 -0 4.11 0 -0 2.05 0 -0 0.00 0 -0 4.97 0 -0 4.97 0 -0 4.97 0 -0 0.00 15 -0 5.97 0 -0 5.97 0 -0 5.97 0 -0 0.00 25 -0 9.63 0 -0 9.63 0 -0 9.63 6.67 10.19 -9.23 -0.86 -24.63 27.84 -40.04 -15.74 -17.77 -10.10 10.19 18.00 -15.01 0 -41.09 -19.98 0 3.12 2.69 0 0.00 0.00 0 0.00 -15.00 0 -17.42 0.00 0 -1.70 0.00 0 -0.85 0.00 0 0.00 0.00 0 -8.62 0.00 0 -8.62 0.00 0 -8.62 0.00 0 0.00 15.00 0 -28.88 0.00 0 -28.88 0.00 0 -28.88 0.00 0 0.00 25.00 0 -26.76 0.00 0 -26.76 0.00 0 -26.76 
-305.06 91.91 46.66 93.04 3.60 1.40 1.35 -12.18 -5.78 -0.00 28.78 -0.00 1.96 -19.35 1.06 16.81 -16.52 -1.26 -0.00 30.98 0.00 1.82 -16.46 -2.83 -2.42 -5.73 2.54 -0.62 -1.39 0.61 -1.06 -2.26 1.03 -0.03 3.40 -0.38 -1.18 54.41 -1.06 -17.37 32.33 -9.52 23.65 -1.63 -2.54 11.17 -44.25 -28.59 -47.02 20.49 27.58 -10.22 13.32 -0.29 -49.26 -0 15.84 12.01 -0 -13.99 -14.15 -0 0.00 0 -0 0.00 -15 -0 6.69 0 -0 4.11 0 -0 2.05 0 -0 0.00 0 -0 4.97 0 -0 4.97 0 -0 4.97 0 -0 0.00 15 -0 5.97 0 -0 5.97 0 -0 5.97 0 -0 0.00 25 -0 9.63 0 -0 9.63 0 -0 9.63 6.94 9.78 -9.05 -0.55 -24.70 27.93 -39.43 -15.82 -17.84 -10.47 10.02 17.42 -14.70 0 -41.24 -19.35 0 2.98 2.85 0 0.00 0.00 0 0.00 -15.00 0 -18.40 0.00 0 -1.94 0.00 0 -0.97 0.00 0 0.00 0.00 0 -9.09 0.00 0 -9.09 0.00 0 -9.09 0.00 0 0.00 15.00 0 -29.25 0.00 0 -29.25 0.00 0 -29.25 0.00 0 0.00 25.00 0 -27.21 0.00 0 -27.21 0.00 0 -27.21 
-305.99 92.64 46.30 117.19 4.33 1.43 -14.48 -12.62 -4.05 0.00 36.03 0.00 -5.39 -16.77 8.03 -5.96 -19.10 -0.57 -0.00 27.20 -0.00 3.37 -14.94 -1.41 -7.31 0.34 -3.11 -1.83 0.05 -0.77 -3.03 0.01 -1.28 -0.89 3.52 0.32 3.24 53.33 8.74 -12.16 26.02 6.34 17.63 3.51 -6.68 -14.10 -17.39 -11.15 -62.31 16.72 18.91 -14.94 13.19 -4.67 -47.38 -0 14.07 15.78 -0 -15.75 -4.44 -0 0.00 0 -0 0.00 -15 -0 9.40 0 -0 10.69 0 -0 5.34 0 -0 0.00 0 -0 7.30 0 -0 7.30 0 -0 7.30 0 -0 0.00 15 -0 16.45 0 -0 16.45 0 -0 16.45 0 -0 0.00 25 -0 21.47 0 -0 21.47 0 -0 21.47 -7.02 -0.96 1.41 -0.01 -24.72 27.85 -38.98 -16 -17.95 -6.31 11.55 -8.13 -9.84 0 -34.18 -9.63 0 10.04 2.96 0 0.00 0.00 0 0.00 -15.00 0 1.25 0.00 0 -2.08 0.00 0 -1.04 0.00 0 0.00 0.00 0 1.12 0.00 0 1.12 0.00 0 1.12 0.00 0 0.00 15.00 0 -17.48 0.00 0 -17.48 0.00 0 -17.48 0.00 0 0.00 25.00 0 -16.98 0.00 0 -16.98 0.00 0 -16.98 
-306.35 92.73 46.32 117.21 4.13 1.64 -14.54 -11.21 -4.31 0.00 35.45 0.00 -5.31 -18.06 7.66 -5.67 -19.20 -0.92 0.00 27.23 0.00 3.17 -14.72 -1.34 -7.14 0.17 -3.19 -1.79 0.01 -0.79 -2.96 -0.06 -1.32 -0.90 3.54 0.32 3.32 53.70 8.92 -12.42 26.05 6.39 17.67 3.46 -6.47 -14.38 -17.26 -11.36 -62.2 16.63 19.02 -14.8 13.05 -4.71 -47.53 -0 14.07 15.47 -0 -15.75 -3.94 -0 0.00 0 -0 0.00 -15 -0 9.46 0 -0 10.47 0 -0 5.24 0 -0 0.00 0 -0 7.47 0 -0 7.47 0 -0 7.47 0 -0 0.00 15 -0 16.37 0 -0 16.37 0 -0 16.37 0 -0 0.00 25 -0 21.19 0 -0 21.19 0 -0 21.19 -7.11 -1.02 1.40 0.75 -24.72 27.63 -38.63 -16.26 -18.05 -5.51 11.05 -8.76 -9.85 0 -33.97 -9.66 0 10.25 3.06 0 0.00 0.00 0 0.00 -15.00 0 0.97 0.00 0 -2.26 0.00 0 -1.13 0.00 0 0.00 0.00 0 0.81 0.00 0 0.81 0.00 0 0.81 0.00 0 0.00 15.00 0 -17.52 0.00 0 -17.52 0.00 0 -17.52 0.00 0 0.00 25.00 0 -16.92 0.00 0 -16.92 0.00 0 -16.92 
-306.57 92.71 46.09 117.21 4.13 1.64 -13.82 -10.47 -4.13 0.00 33.86 -0.00 -6.51 -18.53 7.22 0.39 -19.27 -1.74 0.00 27.48 0.00 -2.86 -14.80 0.23 -6.99 -0.13 -3.12 -1.75 -0.05 -0.78 -2.89 -0.15 -1.29 -0.91 3.56 0.31 3.40 54.06 9.08 -12.70 26.10 6.40 17.69 3.49 -6.25 -14.62 -17.23 -11.6 -62.12 16.64 19.23 -15.14 12.82 -4.78 -47.41 -0 14.17 15.73 -0 -15.65 -3.44 -0 0.00 0 -0 0.00 -15 -0 9.36 0 -0 10.28 0 -0 5.14 0 -0 0.00 0 -0 6.52 0 -0 6.52 0 -0 6.52 0 -0 0.00 15 -0 16.15 0 -0 16.15 0 -0 16.15 0 -0 0.00 25 -0 20.80 0 -0 20.80 0 -0 20.80 -7.22 -1.06 1.36 0.69 -24.26 27.46 -38.05 -15.93 -17.31 -2.78 10.77 -8.63 -10.63 0 -33.96 -11.21 0 10.26 3.20 0 0.00 0.00 0 0.00 -15.00 0 1.10 0.00 0 -2.42 0.00 0 -1.21 0.00 0 0.00 0.00 0 0.82 0.00 0 0.82 0.00 0 0.82 0.00 0 0.00 15.00 0 -17.28 0.00 0 -17.28 0.00 0 -17.28 0.00 0 0.00 25.00 0 -16.66 0.00 0 -16.66 0.00 0 -16.66 
-306.79 92.68 45.88 117.21 4.13 1.64 -13.97 -10.34 -3.99 0.00 32.45 0.00 -6.89 -18.45 6.44 0.72 -19.42 -1.99 0.00 27.65 0.00 -3.15 -14.81 0.43 -6.86 -0.39 -3.01 -1.72 -0.11 -0.76 -2.84 -0.24 -1.25 -0.92 3.58 0.31 3.46 54.35 9.21 -13.00 26.14 6.38 17.70 3.54 -6.07 -14.83 -17.28 -11.84 -62.07 16.62 19.47 -15.17 12.87 -5.00 -47.48 -0 14.25 15.59 -0 -15.57 -2.76 -0 0.00 0 -0 0.00 -15 -0 9.32 0 -0 10.05 0 -0 5.03 0 -0 0.00 0 -0 6.64 0 -0 6.64 0 -0 6.64 0 -0 0.00 15 -0 15.88 0 -0 15.88 0 -0 15.88 0 -0 0.00 25 -0 20.50 0 -0 20.50 0 -0 20.50 -7.32 -1.10 1.33 0.67 -23.87 27.26 -37.44 -15.47 -16.65 -2.33 10.66 -8.84 -10.69 0 -33.95 -11.33 0 10.27 3.33 0 0.00 0.00 0 0.00 -15.00 0 0.74 0.00 0 -2.36 0.00 0 -1.18 0.00 0 0.00 0.00 0 0.65 0.00 0 0.65 0.00 0 0.65 0.00 0 0.00 15.00 0 -17.31 0.00 0 -17.31 0.00 0 -17.31 0.00 0 0.00 25.00 0 -16.73 0.00 0 -16.73 0.00 0 -16.73 
-306.95 92.65 45.73 117.14 3.97 1.85 -13.98 -10.25 -4.07 -0.00 31.81 -0.00 -7.02 -18.92 5.73 0.96 -19.26 -2.38 0.00 27.58 0.00 -3.23 -14.73 0.55 -6.70 -0.52 -3.02 -1.68 -0.14 -0.76 -2.77 -0.29 -1.26 -0.93 3.60 0.31 3.52 54.60 9.33 -13.34 26.18 6.32 17.70 3.60 -5.93 -14.87 -17.02 -12.18 -62.3 16.38 19.59 -15.18 12.88 -5.21 -47.65 -0 14.36 15.23 -0 -15.46 -2.41 -0 0.00 0 -0 0.00 -15 -0 9.25 0 -0 9.67 0 -0 4.84 0 -0 0.00 0 -0 6.47 0 -0 6.47 0 -0 6.47 0 -0 0.00 15 -0 15.51 0 -0 15.51 0 -0 15.51 0 -0 0.00 25 -0 20.09 0 -0 20.09 0 -0 20.09 -7.49 -0.81 1.06 1.65 -24.34 27.14 -37.03 -15.55 -16.94 -2.14 10.67 -8.91 -10.75 0 -33.98 -11.45 0 10.24 2.95 0 0.00 0.00 0 0.00 -15.00 0 0.74 0.00 0 -2.21 0.00 0 -1.11 0.00 0 0.00 0.00 0 0.71 0.00 0 0.71 0.00 0 0.71 0.00 0 0.00 15.00 0 -17.17 0.00 0 -17.17 0.00 0 -17.17 0.00 0 0.00 25.00 0 -16.78 0.00 0 -16.78 0.00 0 -16.78 
-307.12 92.62 45.61 116.95 3.88 2.05 -13.61 -10.29 -4.24 -0.00 31.12 -0.00 -7.42 -19.14 5.36 1.20 -19.18 -2.74 0.00 27.51 0.00 -3.16 -14.64 0.60 -6.55 -0.66 -3.00 -1.64 -0.17 -0.76 -2.71 -0.34 -1.25 -0.93 3.61 0.30 3.54 54.75 9.36 -13.66 26.22 6.18 17.72 3.64 -5.85 -14.84 -16.81 -12.51 -62.53 16.03 19.73 -15.18 12.9 -5.43 -47.83 -0 14.41 14.87 -0 -15.41 -1.96 -0 0.00 0 -0 0.00 -15 -0 9.11 0 -0 9.27 0 -0 4.64 0 -0 0.00 0 -0 6.41 0 -0 6.41 0 -0 6.41 0 -0 0.00 15 -0 15.12 0 -0 15.12 0 -0 15.12 0 -0 0.00 25 -0 19.63 0 -0 19.63 0 -0 19.63 -7.54 -0.59 0.77 2.71 -24.79 27.01 -36.74 -15.73 -17.35 -2.26 10.76 -8.81 -10.79 0 -33.98 -11.53 0 10.24 2.64 0 0.00 0.00 0 0.00 -15.00 0 0.83 0.00 0 -2.07 0.00 0 -1.04 0.00 0 0.00 0.00 0 0.84 0.00 0 0.84 0.00 0 0.84 0.00 0 0.00 15.00 0 -17.01 0.00 0 -17.01 0.00 0 -17.01 0.00 0 0.00 25.00 0 -16.96 0.00 0 -16.96 0.00 0 -16.96 
-307.33 92.59 45.54 115.43 3.92 2.48 -12.52 -10.44 -4.84 0.00 30.53 0.00 -6.92 -19.46 4.93 2.96 -18.94 -3.43 0.00 27.25 0.00 -3.23 -14.56 0.67 -5.71 -0.85 -3.16 -1.43 -0.22 -0.80 -2.36 -0.40 -1.32 -0.92 3.62 0.29 3.50 54.79 9.28 -13.90 26.30 5.95 17.86 3.69 -5.76 -14.85 -17.06 -12.75 -62.48 15.78 20.03 -15.12 12.91 -5.74 -47.98 -0 14.46 14.58 -0 -15.37 -1.57 -0 0.00 0 -0 0.00 -15 -0 8.96 0 -0 8.81 0 -0 4.40 0 -0 0.00 0 -0 6.38 0 -0 6.38 0 -0 6.38 0 -0 0.00 15 -0 14.64 0 -0 14.64 0 -0 14.64 0 -0 0.00 25 -0 19.12 0 -0 19.12 0 -0 19.12 -7.39 -0.80 0.70 2.75 -24.43 26.8 -36.26 -15.37 -16.81 -2.63 10.9 -8.58 -10.79 0 -34.00 -11.53 0 10.21 2.76 0 0.00 0.00 0 0.00 -15.00 0 0.98 0.00 0 -1.92 0.00 0 -0.96 0.00 0 0.00 0.00 0 0.90 0.00 0 0.90 0.00 0 0.90 0.00 0 0.00 15.00 0 -16.86 0.00 0 -16.86 0.00 0 -16.86 0.00 0 0.00 25.00 0 -17.18 0.00 0 -17.18 0.00 0 -17.18 
